<svg xmlns="http://www.w3.org/2000/svg" viewBox="0 0 64 64" role="img" aria-label="CDS Crash Course icon">
  <defs>
    <linearGradient id="bg" x1="8" x2="56" y1="8" y2="56" gradientUnits="userSpaceOnUse">
      <stop offset="0" stop-color="#14b8a6" />
      <stop offset="1" stop-color="#0f766e" />
    </linearGradient>
  </defs>
  <rect width="64" height="64" rx="16" fill="url(#bg)" />
  <path
    fill="#ffffff"
    d="M23.5 20.5a2 2 0 0 1 0 2.8L16.8 30l6.7 6.7a2 2 0 1 1-2.8 2.8l-8.1-8.1a2 2 0 0 1 0-2.8l8.1-8.1a2 2 0 0 1 2.8 0Zm17 0a2 2 0 0 1 2.8 0l8.1 8.1a2 2 0 0 1 0 2.8l-8.1 8.1a2 2 0 1 1-2.8-2.8l6.7-6.7-6.7-6.7a2 2 0 0 1 0-2.8ZM34.9 17.7a2 2 0 0 1 1.37 2.47l-6.4 23.8a2 2 0 1 1-3.86-1.04l6.4-23.8a2 2 0 0 1 2.49-1.43Z"
  />
</svg>
